<?xml version="1.0" standalone="no"?>
<!DOCTYPE svg PUBLIC "-//W3C//DTD SVG 20010904//EN"
 "http://www.w3.org/TR/2001/REC-SVG-20010904/DTD/svg10.dtd">
<svg version="1.0" xmlns="http://www.w3.org/2000/svg"
 width="1384.000000pt" height="1386.000000pt" viewBox="0 0 1384.000000 1386.000000"
 preserveAspectRatio="xMidYMid meet">
<metadata>
Created by potrace 1.16, written by Peter Selinger 2001-2019
</metadata>
<g transform="translate(0.000000,1386.000000) scale(0.100000,-0.100000)"
fill="#000000" stroke="none">
<g>
<path d="M7245 12895 c-66 2 -138 0 -160 -4 -22 -5 -65 -14 -95 -20 -30 -6
-84 -21 -119 -33 -35 -12 -78 -29 -95 -38 -17 -8 -58 -33 -90 -55 -33 -21 -86
-64 -119 -95 -33 -30 -82 -84 -109 -120 -27 -36 -74 -114 -104 -173 -30 -60
-54 -116 -54 -125 0 -9 -7 -36 -15 -58 -8 -23 -19 -101 -26 -175 -9 -103 -9
-156 0 -232 7 -54 23 -131 35 -170 13 -40 38 -103 56 -142 18 -38 51 -101 73
-140 22 -38 56 -95 76 -125 19 -30 59 -87 88 -126 28 -39 58 -78 65 -85 7 -8
49 -59 94 -114 45 -55 93 -113 107 -130 14 -16 66 -77 115 -135 50 -58 102
-118 116 -135 14 -16 50 -61 80 -100 29 -38 70 -101 90 -139 20 -38 45 -99 56
-136 12 -39 20 -96 20 -136 0 -41 -9 -96 -20 -134 -11 -36 -31 -88 -45 -116
-13 -29 -51 -81 -84 -116 -33 -36 -80 -78 -103 -94 -24 -16 -45 -31 -48 -34
-3 -3 -16 -11 -30 -18 -14 -6 -32 -16 -40 -21 -8 -6 -31 -17 -50 -25 -19 -9
-57 -23 -85 -31 -27 -9 -93 -25 -145 -36 -52 -10 -158 -28 -235 -39 -77 -11
-254 -24 -393 -30 -140 -5 -258 -12 -262 -15 -5 -3 -65 -12 -135 -20 -69 -8
-156 -22 -193 -30 -37 -9 -92 -22 -122 -30 -30 -8 -100 -26 -155 -40 -55 -15
-109 -30 -120 -34 -11 -4 -58 -20 -105 -36 -47 -15 -99 -33 -117 -41 -17 -8
-35 -14 -40 -14 -4 -1 -26 -9 -48 -20 -22 -11 -44 -19 -49 -20 -5 0 -79 -35
-165 -77 -86 -42 -210 -108 -276 -146 -66 -38 -178 -108 -250 -155 -71 -48
-204 -143 -295 -211 -91 -69 -187 -143 -213 -165 -27 -23 -86 -72 -130 -110
-45 -39 -87 -75 -93 -80 -6 -6 -38 -33 -70 -61 -32 -27 -65 -57 -74 -65 -9 -8
-36 -33 -60 -54 -25 -22 -92 -83 -149 -135 -58 -53 -112 -103 -121 -111 -9 -8
-74 -67 -145 -130 -72 -64 -188 -167 -260 -230 -71 -63 -152 -135 -180 -161
-27 -26 -70 -64 -94 -85 -25 -22 -52 -46 -61 -54 -8 -8 -85 -78 -170 -155 -85
-77 -175 -160 -201 -185 -25 -25 -68 -65 -95 -89 -27 -25 -110 -101 -184 -170
-74 -70 -173 -164 -220 -211 l-85 -85 65 -3 c36 -2 266 -2 512 0 l447 3 -53
-55 c-29 -30 -75 -78 -102 -106 -27 -28 -77 -81 -112 -117 -34 -36 -62 -70
-62 -76 0 -9 125 -11 458 -9 251 1 554 5 672 9 118 4 323 14 455 22 132 9 283
21 335 27 52 5 160 17 240 25 80 9 192 22 250 30 58 8 170 23 250 35 80 11
184 26 231 34 48 8 111 19 140 25 30 6 92 18 139 27 l85 16 40 -45 c23 -24 61
-75 86 -113 24 -38 50 -79 57 -92 7 -13 26 -50 43 -83 l30 -59 -16 -82 c-9
-46 -23 -110 -31 -143 -7 -33 -23 -98 -33 -145 -11 -47 -30 -125 -42 -175 -11
-49 -27 -117 -35 -150 -8 -33 -23 -98 -34 -145 -10 -47 -46 -188 -79 -315 -33
-126 -69 -261 -79 -298 -11 -38 -18 -76 -16 -85 3 -9 13 -80 24 -157 11 -77
29 -189 40 -250 11 -60 27 -150 35 -200 8 -49 24 -139 35 -200 12 -60 29 -162
40 -225 10 -63 23 -142 29 -175 6 -33 11 -69 11 -80 0 -19 -7 -20 -122 -20
-68 -1 -979 -2 -2025 -3 -1046 -1 -1909 -5 -1918 -8 -8 -4 -20 -15 -26 -26 -8
-15 -7 -24 7 -39 17 -19 59 -19 2060 -19 2018 0 2043 0 2049 -20 3 -10 11 -43
16 -72 5 -29 19 -102 29 -163 11 -60 26 -150 34 -200 8 -49 21 -130 30 -180 9
-49 18 -102 21 -117 l5 -28 -191 0 c-158 0 -194 -3 -214 -16 -14 -9 -25 -26
-25 -38 0 -12 5 -27 12 -34 9 -9 156 -12 600 -12 385 0 588 3 588 10 0 6 6 10
14 10 8 0 16 6 19 13 2 6 2 19 0 27 -2 8 -16 21 -31 28 -18 8 -89 12 -237 12
l-211 0 -13 49 c-7 27 -19 89 -27 137 -7 49 -20 132 -28 184 -8 53 -17 102
-20 110 -3 8 -13 62 -22 120 -9 58 -18 122 -21 143 l-5 37 512 -2 c444 -3 514
-5 521 -18 4 -8 24 -49 43 -90 19 -41 46 -103 60 -137 14 -34 50 -112 79 -175
30 -62 62 -131 71 -153 10 -22 35 -76 56 -120 l39 -80 -242 -5 c-171 -4 -249
-9 -264 -18 -13 -7 -23 -22 -23 -35 0 -13 5 -28 12 -35 9 -9 171 -12 669 -12
619 0 658 1 679 18 16 13 21 24 16 39 -4 12 -14 25 -24 29 -9 5 -120 11 -245
14 l-228 5 -19 35 c-10 19 -37 75 -59 123 -23 49 -41 90 -41 93 0 3 -9 25 -20
50 -11 24 -29 64 -40 88 -11 25 -20 47 -20 50 0 3 -13 34 -29 68 -16 35 -42
92 -57 128 -16 36 -36 81 -45 100 l-17 35 560 3 c394 1 565 5 575 13 7 6 13
19 13 28 0 10 -6 25 -12 34 -12 15 -62 17 -591 18 l-577 1 -56 116 c-31 65
-62 131 -69 147 -8 17 -27 60 -44 96 -16 36 -54 122 -84 190 -30 68 -69 156
-86 194 -18 39 -45 97 -60 130 -16 33 -55 116 -88 185 -41 84 -62 142 -66 178
-4 29 -11 68 -17 85 -5 18 -17 61 -26 97 -9 36 -23 97 -31 135 -7 39 -22 117
-32 175 -11 58 -29 155 -40 215 -12 61 -28 144 -35 185 -8 41 -22 118 -31 170
-9 52 -20 111 -25 130 -5 19 -16 82 -26 140 -9 58 -23 141 -31 185 -8 44 -15
89 -16 100 0 11 5 49 11 85 7 36 12 92 12 125 0 33 9 85 19 115 10 30 34 84
53 120 19 36 48 87 64 114 28 46 33 49 114 76 47 15 146 53 220 83 74 30 153
65 175 77 22 13 69 38 105 58 36 19 97 56 135 81 39 26 95 64 125 86 30 21 87
64 126 95 40 32 91 75 115 96 23 22 70 66 103 100 34 33 97 100 142 150 44 49
98 112 120 140 21 29 46 62 54 74 8 12 22 32 31 44 9 11 31 44 51 71 19 28 50
76 69 108 19 32 51 88 72 125 20 37 58 110 83 162 25 52 54 113 63 135 10 22
29 67 41 100 12 33 26 69 31 80 4 11 19 54 32 95 13 41 32 100 41 130 9 30 25
93 35 140 11 47 22 105 26 130 3 25 10 59 15 75 5 17 17 125 26 240 9 120 14
248 10 300 -3 50 -10 133 -16 185 -5 52 -17 127 -26 165 -9 39 -25 99 -36 135
-11 36 -29 92 -40 125 -12 33 -43 107 -71 165 -27 58 -71 140 -96 183 -25 43
-51 86 -56 95 -6 9 -30 49 -53 87 -24 39 -61 97 -82 130 -21 33 -45 71 -53 85
-8 14 -43 75 -78 135 -35 61 -81 144 -101 185 -20 41 -47 100 -61 130 -13 30
-38 96 -55 145 -17 50 -40 128 -51 174 -16 65 -21 116 -21 230 0 80 4 152 9
160 8 13 36 11 193 -12 101 -15 221 -36 268 -46 47 -11 112 -26 145 -34 33 -8
89 -22 125 -31 36 -9 97 -26 135 -38 39 -11 143 -45 233 -75 90 -30 176 -61
190 -69 15 -8 31 -14 35 -14 5 0 23 -6 40 -14 18 -8 61 -26 97 -41 36 -14 74
-30 85 -34 11 -5 117 -57 235 -116 118 -58 231 -116 252 -128 20 -12 74 -44
120 -72 45 -27 104 -64 130 -82 26 -18 52 -33 57 -33 5 0 11 -3 13 -7 2 -5 32
-28 68 -52 36 -24 108 -78 160 -119 52 -42 133 -110 180 -151 47 -42 139 -130
206 -197 67 -66 166 -177 220 -245 55 -68 135 -178 179 -244 43 -66 82 -122
86 -125 3 -3 42 -68 86 -145 44 -77 94 -170 112 -207 23 -47 46 -77 74 -98 22
-16 56 -33 74 -36 18 -3 45 -3 59 0 14 4 37 18 50 31 17 18 24 35 24 65 0 22
-12 68 -26 103 -14 34 -39 91 -56 127 -16 36 -66 139 -111 230 -45 91 -112
219 -150 285 -38 66 -103 174 -145 240 -42 66 -115 173 -161 239 -46 65 -120
164 -164 220 -44 55 -85 106 -91 111 -7 6 -19 20 -28 33 -8 13 -59 70 -113
128 -53 57 -145 150 -203 207 -58 56 -112 109 -121 117 -9 8 -52 46 -96 85
-44 38 -85 74 -92 80 -7 5 -18 15 -25 20 -7 6 -38 31 -69 55 -31 25 -69 54
-84 65 -16 11 -33 25 -39 30 -6 6 -40 32 -75 59 -36 27 -69 52 -75 57 -6 5
-25 20 -43 34 -17 14 -103 71 -192 128 -88 56 -187 118 -218 138 -32 20 -98
58 -148 84 -49 26 -95 51 -100 56 -6 4 -78 42 -160 84 -83 42 -176 88 -208
101 -32 14 -93 41 -135 60 -42 20 -90 42 -107 49 -16 7 -43 17 -60 21 -16 4
-46 17 -66 30 -20 12 -46 35 -57 49 -12 15 -47 45 -79 68 -32 22 -98 61 -148
87 -49 26 -121 56 -160 68 -38 12 -99 28 -135 37 -36 9 -119 18 -185 20z m48
-345 c21 0 49 -7 63 -16 14 -10 32 -30 40 -47 10 -19 14 -41 10 -63 -4 -19
-19 -43 -37 -58 -20 -17 -43 -26 -65 -26 -19 0 -48 7 -63 15 -16 8 -34 28 -41
45 -7 17 -10 46 -7 68 4 24 16 45 34 59 18 15 42 23 66 23z m492 -444 c17 -3
62 -13 100 -23 39 -10 75 -21 80 -24 6 -3 33 -12 60 -19 28 -7 55 -16 60 -20
6 -4 39 -17 75 -30 36 -13 92 -34 125 -47 33 -13 69 -28 80 -33 11 -5 49 -21
85 -35 36 -15 99 -42 140 -62 41 -19 118 -56 170 -83 52 -26 149 -75 215 -110
66 -34 179 -96 250 -138 72 -42 153 -92 180 -111 28 -19 77 -53 110 -75 33
-23 62 -43 65 -46 3 -3 34 -27 70 -53 36 -26 76 -55 89 -64 14 -10 46 -34 71
-54 26 -20 60 -49 76 -64 16 -16 22 -24 14 -20 -8 5 -50 35 -93 68 -43 32
-153 109 -245 171 -92 62 -225 147 -297 188 -71 42 -166 95 -210 118 -44 23
-159 82 -255 130 -96 48 -197 98 -225 109 -27 12 -57 26 -66 30 -8 5 -47 21
-85 36 -38 15 -87 35 -109 45 -22 9 -83 34 -135 55 -52 20 -117 45 -145 56
-27 10 -102 39 -165 64 -63 25 -101 44 -85 41z m2149 -1126 c2 0 9 -7 16 -15
11 -13 10 -14 -4 -9 -9 3 -16 10 -16 15 0 5 2 9 4 9z m81 -70 c17 -14 32 -26
34 -27 2 -2 2 -5 -1 -8 -2 -3 -18 10 -34 28 l-29 32 30 -25z m104 -90 c6 0 11
-4 11 -10 0 -5 -2 -10 -4 -10 -3 0 -8 5 -11 10 -3 6 -1 10 4 10z m35 -30 c3 0
8 -4 11 -10 3 -5 1 -10 -4 -10 -6 0 -11 5 -11 10 0 6 2 10 4 10z m-1942 -1428
c8 -8 13 -81 16 -239 2 -162 -1 -264 -12 -353 -8 -69 -22 -163 -30 -209 -8
-46 -20 -98 -25 -115 -5 -17 -12 -49 -16 -71 -4 -22 -16 -69 -27 -105 -11 -36
-27 -79 -34 -97 -8 -17 -14 -36 -14 -43 0 -6 -25 -75 -56 -153 -31 -78 -81
-191 -111 -252 -30 -60 -73 -141 -96 -180 -22 -38 -65 -108 -96 -155 -31 -47
-94 -134 -141 -195 -46 -60 -154 -180 -240 -266 -97 -97 -202 -191 -282 -250
-70 -52 -173 -122 -230 -156 -57 -34 -134 -77 -173 -97 -38 -19 -86 -41 -105
-50 -19 -8 -53 -23 -75 -32 -22 -9 -56 -24 -75 -31 -19 -8 -94 -34 -165 -58
-72 -24 -148 -46 -170 -50 -22 -4 -47 -11 -56 -16 -10 -5 -24 -30 -33 -56 -13
-36 -16 -89 -16 -243 0 -109 -5 -221 -10 -251 -8 -43 -18 -61 -51 -91 -36 -33
-47 -38 -91 -38 -40 0 -60 7 -103 35 -29 20 -72 57 -96 83 -24 27 -73 84 -109
127 -36 43 -110 114 -164 158 -55 44 -116 90 -135 102 l-36 23 -95 -18 c-52
-10 -102 -20 -110 -24 -8 -3 -60 -13 -115 -21 -55 -9 -143 -22 -195 -30 -52
-7 -142 -21 -200 -29 -58 -9 -134 -20 -170 -26 -36 -6 -128 -18 -205 -26 -77
-8 -243 -23 -370 -34 -126 -11 -345 -27 -485 -36 -140 -8 -275 -14 -300 -14
-25 1 -49 6 -55 11 -7 7 0 19 20 36 17 14 55 36 85 50 30 14 69 31 85 38 17 7
48 16 70 20 22 4 44 10 50 13 5 4 55 15 110 24 55 10 147 24 205 32 58 8 146
20 195 26 50 6 124 16 165 21 41 5 131 16 199 24 68 8 145 18 170 24 25 6 80
15 121 20 41 6 129 19 195 30 66 11 163 29 215 40 52 11 127 26 165 34 39 9
124 29 190 46 66 18 174 50 240 72 66 23 134 47 152 55 17 8 36 14 42 14 6 0
25 7 43 15 18 8 78 33 133 56 55 23 125 52 155 66 30 13 105 48 165 76 61 28
130 63 155 78 25 14 86 47 135 74 50 26 124 70 165 96 41 26 118 77 170 113
52 36 132 100 178 143 45 43 82 86 82 96 0 9 -6 17 -12 17 -7 0 -39 -18 -71
-40 -31 -22 -59 -40 -62 -40 -3 0 -27 -15 -53 -33 -26 -18 -90 -58 -142 -89
-52 -31 -139 -81 -193 -112 -54 -31 -101 -56 -103 -56 -3 0 -25 -9 -50 -20
-24 -11 -64 -29 -89 -40 -25 -11 -64 -28 -87 -39 -24 -10 -72 -29 -108 -42
-36 -12 -69 -26 -75 -29 -5 -4 -52 -22 -103 -39 -52 -18 -103 -36 -115 -41
-12 -5 -74 -24 -137 -44 -63 -19 -151 -45 -195 -56 -44 -12 -101 -28 -127 -36
-26 -8 -78 -21 -115 -30 -37 -8 -108 -24 -158 -35 -49 -11 -125 -26 -168 -34
-43 -8 -81 -17 -86 -20 -5 -2 -44 -10 -87 -16 -44 -5 -92 -14 -109 -19 -16 -5
-77 -16 -135 -26 -58 -9 -143 -22 -190 -30 -47 -7 -148 -22 -225 -34 -77 -12
-201 -30 -275 -41 -74 -10 -178 -24 -230 -29 -52 -6 -115 -14 -140 -20 -25 -5
-88 -14 -140 -20 -52 -6 -117 -15 -145 -21 -27 -5 -124 -16 -215 -25 -91 -8
-227 -19 -303 -25 -76 -5 -171 -8 -210 -7 -40 2 -65 6 -57 10 8 3 85 13 170
23 85 9 198 22 250 30 52 7 145 20 205 29 61 9 133 21 160 26 28 6 91 17 140
26 50 8 119 22 155 29 36 7 106 22 155 33 50 12 124 30 165 42 41 11 98 27
125 35 28 7 82 23 122 34 39 12 152 47 250 80 98 33 230 80 293 105 63 26 124
51 135 55 11 5 40 18 65 29 25 11 77 35 115 52 39 17 117 55 175 83 58 28 159
82 225 120 66 38 158 94 205 125 47 31 126 87 175 126 50 38 122 98 160 132
39 34 114 106 167 160 53 55 106 111 118 127 20 25 27 27 92 27 39 0 108 9
155 21 47 11 92 24 101 29 10 5 40 18 67 30 28 12 73 33 100 46 28 14 91 58
141 98 50 41 115 99 144 130 29 31 73 83 96 116 24 33 44 62 44 65 0 2 15 28
34 57 18 29 45 76 58 103 14 28 33 72 42 99 12 36 14 52 6 62 -7 7 -18 10 -26
7 -9 -3 -36 -41 -61 -84 -24 -43 -60 -95 -79 -117 -18 -22 -59 -52 -90 -68
-46 -23 -70 -29 -118 -28 -34 0 -71 6 -83 13 -16 8 -23 21 -23 41 0 16 11 41
25 58 14 17 25 42 25 57 0 23 -3 25 -22 20 -13 -4 -27 -12 -33 -19 -5 -7 -34
-31 -64 -54 -29 -23 -81 -59 -115 -78 -39 -23 -82 -39 -121 -45 -33 -5 -83 -6
-112 -3 -29 3 -60 12 -69 18 -15 12 -12 19 30 72 25 32 46 65 46 72 0 7 -7 15
-15 18 -8 3 -29 -5 -47 -17 -18 -13 -46 -36 -63 -51 -16 -15 -34 -28 -38 -28
-5 0 -23 -11 -42 -25 -18 -14 -59 -39 -92 -56 -39 -20 -82 -33 -131 -39 -43
-5 -87 -4 -107 1 -19 5 -43 21 -55 36 -11 14 -20 30 -20 35 0 5 23 33 50 62
34 36 48 59 44 69 -5 15 -10 14 -47 -5 -23 -11 -73 -41 -111 -66 -38 -24 -104
-62 -147 -84 -70 -35 -88 -39 -176 -45 -95 -6 -100 -5 -128 19 -26 23 -27 27
-14 45 8 11 52 50 99 88 47 37 87 69 89 72 3 2 0 8 -6 14 -8 8 -31 0 -79 -26
-38 -20 -87 -47 -109 -59 -22 -13 -57 -41 -77 -62 -21 -21 -38 -41 -38 -45 0
-3 16 -27 35 -51 19 -26 53 -55 78 -67 31 -15 63 -21 114 -21 39 0 94 4 122
10 29 5 90 27 135 48 l82 39 43 -39 c24 -21 62 -43 85 -49 22 -6 76 -9 119 -7
42 3 77 3 77 2 0 -2 -20 -22 -44 -46 -24 -24 -61 -58 -82 -75 -22 -18 -57 -46
-79 -63 -22 -16 -45 -34 -52 -40 -7 -5 -15 -10 -19 -10 -3 0 -18 -9 -33 -20
-16 -10 -64 -37 -107 -59 -43 -22 -110 -49 -149 -61 -38 -12 -87 -26 -107 -32
-22 -7 -80 -9 -143 -5 -72 3 -114 1 -128 -7 -12 -6 -42 -25 -67 -40 -25 -16
-83 -54 -130 -85 -47 -31 -94 -61 -105 -67 -11 -6 -82 -48 -158 -93 -76 -45
-202 -112 -280 -150 -78 -38 -170 -81 -204 -95 -34 -14 -70 -26 -80 -26 -10 0
-30 -7 -45 -14 -16 -8 -28 -13 -28 -11 0 2 -2 10 -5 18 -4 10 15 21 72 42 43
15 148 61 233 103 85 42 198 100 250 129 52 30 102 58 110 63 8 5 51 30 95 56
44 26 139 85 210 132 72 46 162 105 200 131 39 25 70 53 70 61 0 8 -7 14 -15
13 -8 -1 -55 -15 -105 -32 -49 -16 -124 -37 -165 -46 -52 -12 -107 -16 -175
-13 -81 3 -109 8 -149 28 -28 14 -55 34 -60 45 -6 11 -12 21 -12 23 -1 2 -19
-7 -40 -20 -22 -12 -77 -50 -124 -83 -47 -34 -137 -95 -200 -136 -63 -42 -173
-109 -245 -150 -71 -41 -170 -94 -220 -117 -49 -24 -101 -50 -115 -57 -14 -7
-39 -15 -54 -17 -16 -2 -31 2 -33 7 -2 6 70 48 159 93 90 46 193 100 229 120
37 20 99 57 139 82 39 25 151 98 248 163 98 64 250 168 339 230 89 61 183 130
208 153 27 24 46 48 44 57 -4 14 -9 13 -43 -4 -22 -10 -67 -28 -100 -38 -34
-11 -86 -27 -116 -35 -30 -8 -98 -24 -150 -35 -52 -11 -135 -23 -185 -26 -49
-4 -126 -2 -170 4 -44 5 -101 19 -127 31 -26 11 -64 36 -84 55 -20 19 -40 35
-45 35 -4 0 -34 -21 -67 -47 -32 -27 -92 -77 -132 -113 -40 -36 -81 -72 -90
-80 -9 -8 -41 -37 -71 -64 -30 -28 -86 -79 -124 -115 -39 -36 -124 -115 -189
-176 -65 -60 -133 -123 -151 -140 -18 -16 -47 -43 -65 -60 l-32 -30 17 35 c10
19 93 109 184 200 92 91 205 200 251 242 47 42 130 116 186 165 55 48 118 103
140 122 21 19 111 91 199 161 88 69 171 133 185 142 14 9 54 37 90 63 36 25
110 76 165 112 55 36 116 76 135 88 19 12 67 41 106 64 38 22 75 41 81 41 6 0
13 3 15 8 2 4 73 42 159 85 86 42 161 77 165 77 5 0 21 6 36 14 14 8 43 19 65
26 21 7 43 16 48 20 6 4 24 10 40 14 17 4 44 14 60 21 17 8 86 29 155 49 69
19 172 46 230 59 58 13 146 32 195 41 50 9 131 21 180 26 50 5 212 16 360 24
149 9 293 20 320 25 28 5 91 17 140 26 50 8 118 20 151 26 l62 11 130 -65 c72
-36 157 -73 189 -83 32 -9 67 -21 78 -26 11 -5 56 -16 100 -25 44 -8 137 -18
206 -20 103 -4 145 -1 223 16 53 12 104 25 114 30 9 5 42 19 72 32 30 13 85
43 122 67 37 24 95 73 128 109 33 36 60 71 60 76 0 7 4 7 12 -1z m-1780 -1222
c4 0 10 -5 13 -10 4 -6 30 -22 58 -37 44 -22 65 -26 134 -26 l82 0 -19 -27
c-11 -15 -46 -52 -79 -83 -33 -30 -98 -80 -144 -111 -46 -30 -110 -67 -143
-82 -32 -14 -68 -30 -79 -34 -11 -5 -58 -19 -104 -30 -46 -11 -94 -20 -107
-20 -13 0 -24 6 -24 13 0 6 4 17 8 22 4 6 38 35 75 64 38 30 96 85 129 124 33
38 79 100 103 137 24 37 54 75 66 84 13 9 27 16 31 16z m-480 -30 c5 0 22 -9
37 -19 15 -11 49 -25 75 -32 26 -6 76 -9 111 -6 l65 5 -32 -44 c-18 -25 -64
-75 -102 -112 -39 -37 -109 -92 -156 -123 -47 -31 -101 -64 -120 -73 -19 -10
-62 -28 -95 -40 -33 -13 -81 -26 -106 -30 -25 -4 -76 -7 -113 -7 -38 -1 -73 4
-78 9 -6 6 20 30 70 65 44 31 91 66 105 79 15 13 46 40 71 61 24 21 64 57 88
80 24 23 66 68 93 101 28 32 56 65 63 72 7 8 18 14 24 14z m-292 -2710 c5 0
14 -26 20 -57 6 -32 14 -65 17 -73 3 -8 14 -55 25 -105 11 -49 26 -119 33
-155 7 -36 23 -112 34 -170 12 -58 26 -132 31 -165 6 -33 28 -150 50 -260 22
-110 44 -220 50 -245 5 -25 15 -79 20 -120 6 -41 18 -109 27 -150 9 -41 31
-109 50 -150 19 -41 47 -102 63 -135 15 -33 40 -87 55 -120 15 -33 42 -91 60
-130 18 -38 43 -92 55 -120 12 -27 34 -75 47 -105 14 -30 50 -111 80 -179 30
-68 68 -153 84 -189 17 -35 28 -70 25 -78 -4 -12 -84 -14 -491 -14 -380 0
-486 3 -489 13 -2 6 -9 37 -15 67 -6 30 -18 98 -27 150 -9 52 -22 131 -30 175
-7 44 -22 130 -33 190 -12 61 -28 152 -36 204 -9 51 -18 97 -21 102 -3 5 -12
59 -21 121 -8 62 -17 135 -20 161 -3 26 2 87 11 135 9 48 26 130 37 182 11 52
24 111 29 130 5 19 26 100 46 180 20 80 43 172 51 205 8 33 23 96 33 140 10
44 26 111 35 149 8 37 17 72 20 76 3 4 11 36 19 71 8 35 25 100 36 144 12 44
24 90 27 103 3 12 9 22 13 22z"/>
</g>
<g>
<path d="M8440 2680 c-129 0 -240 -4 -245 -8 -6 -4 -21 -20 -33 -36 -12 -15
-19 -32 -16 -37 3 -5 128 -9 278 -9 198 0 275 3 284 12 7 7 12 20 12 29 0 10
-10 25 -22 33 -19 13 -61 16 -258 16z"/>
</g>
<g>
<path d="M9148 2680 l-298 0 -10 -26 c-7 -17 -7 -32 0 -45 10 -18 24 -19 308
-19 219 0 301 3 310 12 7 7 12 21 12 33 0 12 -5 26 -12 33 -9 9 -92 12 -310
12z"/>
</g>
<g>
<path d="M9965 2680 l-255 0 -15 -24 c-13 -19 -14 -29 -5 -45 10 -20 18 -21
269 -21 237 0 259 1 274 18 10 10 17 24 17 30 0 6 -7 18 -16 26 -13 14 -52 16
-269 16z"/>
</g>
<g>
<path d="M10841 2680 c-233 0 -320 -3 -329 -12 -7 -7 -12 -21 -12 -31 0 -11 8
-26 18 -33 13 -10 86 -13 335 -14 201 0 325 4 338 10 10 6 19 17 19 25 0 7
-12 23 -26 34 -26 20 -38 21 -343 21z"/>
</g>
<g>
<path d="M11802 2680 c-437 0 -449 -1 -467 -20 -16 -18 -17 -23 -5 -45 l13
-25 460 2 c460 3 460 3 474 25 13 19 12 24 -6 42 -21 21 -29 21 -469 21z"/>
</g>
<g>
<path d="M12671 2680 c-128 0 -223 -5 -233 -11 -10 -5 -18 -20 -18 -32 0 -13
5 -28 12 -35 9 -9 74 -12 233 -12 159 0 224 3 233 12 7 7 12 21 12 33 0 12 -5
26 -12 33 -9 9 -73 12 -227 12z"/>
</g>
<g>
<path d="M13083 2679 c-15 0 -34 -3 -41 -6 -7 -2 -17 -14 -23 -25 -8 -15 -7
-24 7 -39 11 -12 30 -19 54 -19 23 0 43 7 53 18 10 10 17 26 17 35 0 9 -9 21
-19 27 -11 5 -32 10 -48 9z"/>
</g>
<g>
<path d="M8095 2420 c-190 0 -226 -2 -239 -16 -9 -8 -16 -23 -16 -33 0 -9 5
-22 12 -29 9 -9 77 -12 245 -12 225 0 233 1 243 21 9 16 8 26 -5 45 l-15 24
-225 0z"/>
</g>
<g>
<path d="M8745 2420 c-235 0 -276 -2 -289 -16 -9 -8 -16 -22 -16 -29 0 -7 7
-21 16 -29 13 -14 54 -16 293 -16 202 0 280 3 289 12 7 7 12 24 12 39 0 15 -7
29 -16 33 -9 3 -139 6 -289 6z"/>
</g>
<g>
<path d="M12458 2419 c-161 0 -303 -4 -315 -9 -12 -5 -24 -17 -27 -28 -4 -11
-4 -26 -1 -35 4 -8 16 -18 28 -21 12 -3 154 -6 315 -6 183 0 301 4 313 10 12
7 19 21 19 40 0 19 -7 33 -19 40 -12 6 -129 10 -313 9z"/>
</g>
<g>
<path d="M13060 2420 c-64 0 -115 -5 -130 -13 -14 -7 -26 -22 -28 -34 -2 -13
5 -27 20 -37 17 -12 48 -16 140 -16 93 0 120 3 132 16 9 8 16 24 16 34 0 10
-10 26 -22 34 -17 12 -48 16 -128 16z"/>
</g>
<g>
<path d="M2625 2158 c-489 -1 -900 -3 -911 -5 -12 -2 -29 -12 -38 -22 -9 -10
-14 -25 -11 -33 3 -8 17 -20 31 -27 18 -8 275 -11 927 -11 810 0 905 2 925 16
16 11 22 24 20 42 -2 18 -11 28 -28 33 -14 4 -425 7 -915 7z"/>
</g>
<g>
<path d="M10420 1983 c-41 2 -246 0 -455 -4 -209 -4 -425 -12 -480 -18 -55 -6
-147 -15 -205 -21 -58 -6 -139 -18 -180 -26 -41 -9 -91 -20 -112 -25 -20 -5
-46 -17 -58 -27 -17 -13 -21 -24 -16 -40 6 -18 15 -22 49 -21 23 0 76 7 117
15 41 8 138 21 215 29 77 7 204 19 283 25 79 5 373 10 655 11 282 0 580 -5
662 -10 83 -6 231 -17 330 -25 99 -8 194 -17 210 -21 17 -3 91 -12 165 -21 74
-8 178 -21 230 -28 52 -7 140 -21 195 -30 55 -10 127 -24 161 -32 33 -8 68
-14 77 -14 10 0 49 -11 88 -25 40 -13 78 -30 85 -36 8 -6 14 -19 14 -29 0 -10
-14 -24 -32 -33 -18 -8 -50 -20 -71 -27 -20 -6 -77 -18 -125 -26 -48 -8 -125
-19 -172 -25 -69 -9 -89 -15 -107 -35 -12 -13 -20 -31 -17 -39 4 -8 16 -18 28
-20 11 -3 64 -1 116 4 52 6 139 17 193 26 54 8 119 22 145 30 26 9 85 31 132
49 47 19 109 42 138 52 29 10 60 26 68 35 14 16 14 20 -3 42 -10 14 -38 34
-63 45 -25 11 -61 23 -80 27 -19 4 -39 10 -45 14 -5 3 -44 14 -85 24 -41 10
-102 24 -135 31 -33 8 -98 21 -145 30 -47 9 -105 21 -130 26 -25 6 -94 17
-155 26 -60 8 -162 22 -225 29 -63 8 -191 21 -285 30 -93 8 -201 20 -240 25
-38 5 -203 14 -365 20 -162 6 -329 11 -370 13z"/>
</g>
<g>
<path d="M4557 1896 c-56 1 -190 -2 -297 -6 -107 -4 -289 -12 -405 -19 -115
-6 -264 -16 -330 -21 -66 -5 -199 -16 -295 -25 -96 -8 -185 -17 -197 -20 -12
-3 -82 -12 -155 -20 -73 -9 -187 -24 -253 -35 -66 -10 -158 -25 -205 -33 -47
-8 -114 -23 -150 -32 -36 -9 -79 -23 -97 -31 -17 -8 -35 -14 -40 -14 -5 0 -18
-7 -28 -15 -11 -8 -30 -23 -42 -32 -12 -10 -24 -28 -28 -40 -4 -15 1 -28 17
-43 13 -12 41 -30 63 -41 22 -11 81 -27 130 -35 50 -9 93 -18 96 -19 3 -2 120
-9 260 -15 140 -7 439 -15 664 -18 370 -6 414 -9 438 -25 17 -11 27 -26 27
-42 0 -15 -10 -31 -26 -41 -23 -16 -61 -17 -432 -10 -224 4 -465 11 -537 16
-71 5 -209 13 -305 19 -96 6 -269 20 -385 31 -115 11 -223 22 -240 25 -16 3
-73 13 -125 24 -52 10 -119 26 -149 34 -30 9 -66 27 -80 41 -15 15 -33 26 -40
26 -6 0 -26 -7 -44 -16 -18 -9 -42 -26 -54 -37 -14 -12 -23 -32 -23 -49 0 -18
9 -38 24 -52 14 -12 51 -35 83 -50 32 -15 65 -31 74 -36 9 -5 63 -20 120 -35
57 -15 129 -33 159 -40 30 -8 78 -17 105 -20 28 -4 64 -11 81 -16 17 -5 83
-16 145 -24 63 -8 152 -19 199 -25 47 -6 130 -17 185 -25 55 -9 154 -20 220
-25 66 -5 165 -14 220 -20 55 -5 174 -15 265 -20 91 -6 244 -14 340 -19 96 -5
256 -12 355 -16 99 -4 191 -9 205 -11 14 -1 207 -8 430 -13 223 -6 612 -16
865 -22 269 -6 818 -8 1320 -5 473 3 1067 10 1320 15 253 6 532 15 620 20 88
6 282 15 430 22 251 10 272 12 293 32 12 11 22 27 22 34 0 7 -11 19 -25 25
-20 9 -131 9 -458 0 -238 -7 -520 -12 -627 -12 -107 0 -205 3 -217 6 -12 3
-25 15 -28 25 -4 10 -3 28 0 39 3 11 16 25 28 32 12 6 74 13 137 15 63 2 237
8 385 14 149 5 491 12 760 14 270 2 580 9 690 15 110 7 286 19 390 26 105 8
249 19 320 24 72 5 171 14 220 20 50 7 100 14 113 17 12 3 27 14 32 24 8 14 5
23 -12 40 -22 20 -28 21 -173 14 -82 -4 -1326 -7 -2763 -6 -2271 1 -2617 3
-2641 16 -16 8 -31 20 -33 27 -3 7 -3 19 -1 26 3 7 19 20 36 29 30 16 125 18
1220 21 l1189 4 31 28 c25 23 29 30 19 42 -6 8 -30 21 -51 28 -33 10 -317 11
-1558 5 -835 -5 -1864 -9 -2288 -9 -702 -1 -775 1 -826 16 -37 12 -60 25 -68
41 -10 19 -10 30 -2 46 7 13 31 26 64 35 28 8 97 18 152 21 55 4 127 11 160
16 33 4 193 16 355 25 162 9 399 19 527 22 216 7 233 8 247 27 9 11 15 22 15
25 0 3 -6 14 -15 25 -13 18 -27 20 -117 21z"/>
</g>
<g>
<path d="M8198 1900 c-157 0 -199 -3 -225 -16 -19 -9 -33 -24 -33 -34 0 -10 7
-24 17 -31 12 -11 64 -14 224 -15 115 -1 223 1 241 5 26 5 34 12 36 34 3 23
-2 30 -32 42 -27 12 -80 15 -228 15z"/>
</g>
<g>
<path d="M10410 1815 c-217 2 -422 0 -455 -4 -33 -4 -72 -13 -87 -19 -20 -8
-28 -19 -28 -36 0 -17 9 -27 33 -37 26 -11 132 -14 539 -14 466 0 509 1 524
17 14 14 15 22 7 41 -9 20 -24 27 -75 37 -42 8 -195 13 -458 15z"/>
</g>
<g>
<path d="M8939 1680 c-9 0 -22 -7 -29 -16 -10 -11 -11 -23 -4 -41 6 -17 22
-31 49 -41 22 -8 83 -23 135 -34 52 -11 132 -26 178 -33 45 -8 91 -17 102 -20
10 -3 101 -13 202 -21 101 -8 255 -19 343 -24 88 -5 291 -9 450 -9 160 0 364
4 455 9 91 5 234 16 318 24 83 9 189 22 235 31 45 9 101 21 124 27 23 5 50 19
59 29 11 12 14 27 10 43 -3 13 -14 26 -24 28 -9 2 -35 0 -57 -5 -22 -4 -94
-17 -160 -27 -66 -10 -133 -21 -150 -24 -16 -3 -154 -13 -305 -22 -151 -8
-390 -14 -530 -13 -140 2 -316 6 -390 11 -74 4 -200 12 -280 18 -80 5 -212 18
-295 29 -82 11 -193 29 -245 40 -52 11 -113 25 -135 30 -22 6 -47 11 -56 11z"/>
</g>
<g>
<path d="M7244 669 c-665 0 -1057 -4 -1069 -10 -12 -6 -27 -20 -34 -31 -10
-17 -10 -25 -1 -44 7 -13 19 -25 26 -28 7 -3 501 -6 1097 -7 773 -1 1090 2
1105 10 11 6 23 20 27 31 3 10 2 28 -4 38 -6 11 -30 24 -54 31 -31 7 -356 10
-1093 10z"/>
</g>
</g>
</svg>
